<svg width="32" height="32" viewBox="0 0 32 32" xmlns="http://www.w3.org/2000/svg">
  <!-- Background circle -->
  <circle cx="16" cy="16" r="15" fill="#fdf2f8" stroke="#f472b6" stroke-width="1"/>
  
  <!-- Pomegranate cluster -->
  <!-- Main pomegranate -->
  <circle cx="16" cy="18" r="6" fill="#dc2626"/>
  <circle cx="16" cy="18" r="4" fill="#ef4444"/>
  
  <!-- Smaller pomegranates -->
  <circle cx="22" cy="14" r="3" fill="#dc2626"/>
  <circle cx="10" cy="14" r="3" fill="#dc2626"/>
  <circle cx="19" cy="22" r="2.5" fill="#dc2626"/>
  <circle cx="13" cy="22" r="2.5" fill="#dc2626"/>
  
  <!-- Cut open pomegranate (bottom center) -->
  <ellipse cx="16" cy="26" rx="4" ry="2" fill="#fecaca"/>
  <ellipse cx="16" cy="26" rx="3" ry="1.5" fill="#fca5a5"/>
  
  <!-- Small red blossoms/calyxes -->
  <path d="M 16 8 L 18 10 L 16 12 L 14 10 Z" fill="#dc2626"/>
  <path d="M 24 16 L 26 18 L 24 20 L 22 18 Z" fill="#dc2626"/>
  <path d="M 8 16 L 10 18 L 8 20 L 6 18 Z" fill="#dc2626"/>
  
  <!-- Green leaves -->
  <ellipse cx="20" cy="12" rx="2" ry="1" fill="#16a34a" transform="rotate(45 20 12)"/>
  <ellipse cx="12" cy="12" rx="2" ry="1" fill="#16a34a" transform="rotate(-45 12 12)"/>
  <ellipse cx="18" cy="24" rx="1.5" ry="0.8" fill="#16a34a" transform="rotate(30 18 24)"/>
</svg>
